<svg xmlns="http://www.w3.org/2000/svg" width="1159.186" height="291.447" viewBox="0 0 1159.186 291.447">
  <g id="Layer_2" data-name="Layer 2" transform="translate(0.053 -0.002)">
    <g id="Layer_1" data-name="Layer 1" transform="translate(-0.053 0.002)">
      <path id="Path_36843" data-name="Path 36843" d="M791.628,286.567c-9.025-2.512-18.049-5.279-27.074-7.445-3.82-.918-4.843-2.467-4.843-6.317q.09-85.448-.165-170.865c0-8.017-.481-16.049-.135-24.066.2-4.738-1.73-5.776-5.941-6.016-8.633-.421-17.237-1.324-25.84-2.061a26.472,26.472,0,0,1-3.219-.707v-29h11.567c15.778,0,25.961-7.656,31.3-22.366,3.008-8.273,3.174-8.288,12.213-8.032,4.708.135,9.386.6,14.078.9q0,136.091-.105,272.241C793.418,283.935,795.373,286.943,791.628,286.567Z" transform="translate(365.253 4.848)" fill="#e50914"/>
      <path id="Path_36844" data-name="Path 36844" d="M159.226,5h31.406c-.647,78.544-1.278,157.163-1.94,236.4-5.535,1.023-10.814,2.046-16.124,3.008s-10.529,1.745-15.7,2.722c-2.647.5-3.745-.105-4.422-3.008q-18.245-81-36.82-161.811a8.5,8.5,0,0,0-2.181-4.272v40.4q-.406,66.331-.887,132.661c0,3.008-.677,4.3-4.046,4.843-8.754,1.414-17.417,3.474-26.818,5.415.632-84.545,1.263-168.79,1.9-253.666l42.867-1.5c10.408,46.191,20.726,92.006,31.06,137.835h1.73Z" transform="translate(41.26 2.517)" fill="#fff"/>
      <path id="Path_36845" data-name="Path 36845" d="M.027,151.184c0-24.878-.18-49.756,0-74.633.135-12.875,1.7-25.57,6.453-37.768C15.068,17.259,30.65,6.475,53.663,6.43c24.622,0,42.009,14.59,46.356,39.543a129.848,129.848,0,0,1,1.94,21.975c.09,39.106.286,78.108-.451,117.154-.286,15.282.722,30.714-3.174,45.905-8.468,33.09-32.7,50.041-60.585,51.365-13.928.662-24.066-6.137-30.2-18.591C1.907,252.455.3,240.152.162,227.728-.093,202.218.027,176.709.027,151.184Zm33.917,22.968c0,15.913-.226,31.812.135,47.71a51.14,51.14,0,0,0,3.008,14.59,9.19,9.19,0,0,0,10.047,6.257c7.024-.662,13.341-3.52,16.079-10.529a46.627,46.627,0,0,0,3.745-15.823c.436-34.158.391-68.331.5-102.489v-4.242c-.105-16.65,0-33.3-.451-49.921-.3-9.025-5.791-14.5-13.657-15.357-6.8-.737-13.808,4.031-16.41,11.612a34.158,34.158,0,0,0-1.985,10.062Q34.26,97.157,34,128.292c-.105,15.327,0,30.593,0,45.86Z" transform="translate(0.053 3.238)" fill="#fff"/>
      <path id="Path_36846" data-name="Path 36846" d="M588.039,232.785l-30.623-3.73Q556.393,116.143,555.4,3.2h20.937c6.016,0,12.033.481,17.929.211,3.474-.165,4.512,1.233,5.294,4.272q14.725,60.645,29.661,121.245c.993,4.061,2.046,8.107,3.384,13.4V5.11h29.962c.677,79.717,1.369,158.8,2.046,238.64-5.46-.752-10.965-1.429-16.44-2.271-5.1-.782-10.153-2.046-15.282-2.467-3.008-.256-3.926-1.685-4.512-4.2q-16.109-66.18-32.263-132.24c-2.452-10.077-5.039-20.11-7.52-30.082a7,7,0,0,0-2.016-3.7C587.016,123.227,587.527,177.765,588.039,232.785Z" transform="translate(280.055 1.609)" fill="#fff"/>
      <path id="Path_36847" data-name="Path 36847" d="M403.959,106.065c19.418,7.686,21.659,24.066,22.321,40.761.587,14.785-.105,29.6.286,44.4.226,7.912,1.5,15.778,2.422,24.246-.466,0-1.94.241-3.414.241-8.664,0-17.327-.2-25.991.105-3.986.15-5.791-1.309-6.182-5.069-.572-5.445-1.624-10.875-1.7-16.334-.241-16.545,0-33.09-.18-49.635a38.866,38.866,0,0,0-1.5-9.7c-1.5-5.64-5.385-9.611-11.115-10.228-6.468-.692-13.071-.165-20.2-.165v91.569c-4.723.241-8.9.466-13.086.647-6.016.241-11.927.3-17.869.707-3.279.226-3.971-1.2-3.926-4.136.3-17.778.587-35.557.632-53.335q.226-76.528.286-153.057V1.967a41.259,41.259,0,0,1,4.3-.436c17.628,0,35.271-.271,52.884.12a63.488,63.488,0,0,1,17.553,3.008c15.658,4.994,24.066,16.771,25.449,32.473A240.815,240.815,0,0,1,424.6,78C423.482,90.693,416.578,100.335,403.959,106.065ZM359.287,93.16c5.309,0,10.2.346,15.041,0,9.7-.857,15.628-5.4,16.455-15.041.963-11.341.346-22.847-.3-34.248-.271-4.813-3.279-9.446-8.363-10.333-7.415-1.263-15.041-1.339-22.8-1.955Z" transform="translate(163.316 0.722)" fill="#fff"/>
      <path id="Path_36848" data-name="Path 36848" d="M675.537,89.405c-10.529-.812-20.426-1.5-30.262-2.437a3.249,3.249,0,0,1-2.151-2.3c.12-16.786-1.669-33.737,3.76-50.1,8.3-25.028,28.488-33.18,51.666-29.916,23.825,3.369,37.753,18.275,42.416,42.9,7.4,38.956-3.745,72.678-28.488,102.655-7.7,9.355-15.733,18.455-23.163,28.006-9.025,11.6-13.386,24.742-11.431,39.874L740.9,229.587v36.5l-96.894-19.057c.181.271-.15,0-.15-.241.391-16.65-.271-33.406,1.5-49.906,2.286-21.057,14.3-37.888,28.292-53.23,12.679-13.883,24.547-28.337,30.939-46.386a76.708,76.708,0,0,0,2.437-44.566c-2.406-9.837-9.025-14.018-18.937-12.83-6.783.8-11.852,6.859-12.273,15.718s-.226,18.215-.286,27.329Z" transform="translate(324.181 1.995)" fill="#e50914"/>
      <path id="Path_36849" data-name="Path 36849" d="M234.95,67.7c-.526-7.912-.436-15.041-1.579-21.945-1.263-7.7-5.791-11.19-13.206-11.747S206,37.091,203.815,44.1c-4.964,16.019-1.67,30.638,9.626,42.882,8.2,8.874,17.357,16.861,26.021,25.3,11.6,11.311,21.659,23.674,25.419,39.949a85.538,85.538,0,0,1-2.391,49.079c-7.235,20.05-22.411,30.969-42.882,34.444a78.018,78.018,0,0,1-23.283.617c-13.808-1.91-22.561-10.724-27.194-23.72-4.813-13.537-3.911-27.435-3.715-41.694l32.774-3.5c0,7.22-.226,13.913,0,20.576.421,9.566,4.512,14.906,11.672,15.793,9.25,1.173,18.049-3.7,20.546-12.168,4.166-13.958,3.008-27.871-6.016-39.332-8.032-10.153-18.049-18.8-27.284-27.886-13.462-13.131-25.209-27.3-28.442-46.552-2.783-16.545-2.061-32.955,4.6-48.567C181.584,9.987,199.483.361,222.33,1.353c24.5,1.068,37.061,14.184,41.709,31.586a95.57,95.57,0,0,1,2.9,20.456c.542,13.146.241,13.086-12.845,13.4C247.689,66.947,241.312,67.383,234.95,67.7Z" transform="translate(83.367 0.643)" fill="#fff"/>
      <path id="Path_36850" data-name="Path 36850" d="M344.58,76.587c-10.288,0-20.155.105-30.082-.165-.9,0-2.467-2.422-2.5-3.76-.241-8.468.256-16.981-.241-25.449-.647-10.619-6.016-15.778-15.537-15.778s-15.913,6.016-16.771,16.124c-.211,2.5-.226,5.024-.241,7.52,0,18.726,0,37.452-.105,56.178-.135,21.554-.406,43.107-.587,64.676a22.382,22.382,0,0,0,.421,5.114c2.151,9.265,6.633,12.8,15.417,12.319,9.325-.511,15.357-5.716,16.3-14.424.557-4.994.827-10.017.917-15.041.15-8,0-16.019,0-25.058h32.473c0,10.9.481,22.351-.18,33.752a78.936,78.936,0,0,1-4.091,21.057c-6.257,18.124-20.14,27.781-38.475,30.383a80.334,80.334,0,0,1-27.495-.466c-18.139-3.866-27.856-18.049-29.014-36.1-1.309-20.5-.331-41.137-.331-61.668,0-17.643-.105-35.286.15-52.914.15-10.529-.165-21.223,1.609-31.586,5.009-28.382,23.72-42.656,52.4-41.2,28.036,1.4,44.175,17.387,45.86,46.07C345.062,55.861,344.58,65.607,344.58,76.587Z" transform="translate(123.139 -0.002)" fill="#fff"/>
      <path id="Path_36851" data-name="Path 36851" d="M515.772,33.359V91.492l46.356,2.286V125.62l-45.785-2.467v66.917l58.75,4.873v31.962l-93.254-7.821V2.45h91.539V34.863Z" transform="translate(242.974 1.231)" fill="#fff"/>
      <path id="Path_36852" data-name="Path 36852" d="M407.31,1.69h92.1V32.238H441.438V89.394h46.431v30.8H441.814v64.812l58.66,2.211v31.1l-93.134-3.113Z" transform="translate(205.404 0.848)" fill="#fff"/>
      <path id="Path_36853" data-name="Path 36853" d="M290.37,186.444h-3.52l-1.143,10.829h-4.873l1.143-10.829H279.33l.421-4.227h2.662l1.023-9.912h-2.707l.436-4.227h2.707l.917-8.709h4.873l-.917,8.709h3.52l.917-8.709h4.873l-.917,8.709h2.753l-.436,4.227h-2.768l-1.023,9.912h2.722l-.421,4.227H295.2l-1.143,10.829h-4.873Zm-3.083-4.227h3.58l1.023-9.912h-3.58Z" transform="translate(140.889 80.334)" fill="#fff"/>
      <path id="Path_36854" data-name="Path 36854" d="M311.968,168.069v1.354c0,3.911-1.2,6.392-3.85,7.641,3.2,1.248,4.437,4.106,4.437,8.122v3.083c0,5.851-3.083,9.025-9.025,9.025H294.16v-37.9h9.025C309.366,159.36,311.968,162.233,311.968,168.069Zm-11.807-3.249v10.017h2.331c2.226,0,3.58-.978,3.58-4.016v-2.106c0-2.707-.917-3.9-3.008-3.9Zm0,15.432v11.642h3.414c2,0,3.083-.933,3.083-3.745v-3.294c0-3.52-1.128-4.6-3.835-4.6Z" transform="translate(148.365 80.344)" fill="#fff"/>
      <path id="Path_36855" data-name="Path 36855" d="M314.016,175.343h8.167v5.415h-8.167v11.13H324.3V197.3H308V159.4h16.244v5.415H314.016Z" transform="translate(155.342 80.349)" fill="#fff"/>
      <path id="Path_36856" data-name="Path 36856" d="M326.7,184.7l-7.52-25.329h6.227l4.512,17.267,4.512-17.267h5.685L332.6,184.7v12.574H326.58Z" transform="translate(160.978 80.334)" fill="#fff"/>
      <path id="Path_36857" data-name="Path 36857" d="M333.07,168.616c0-6.016,3.2-9.536,9.025-9.536s9.025,3.459,9.025,9.536v19.7c0,6.016-3.2,9.521-9.025,9.521s-9.025-3.459-9.025-9.521Zm6.016,20.08c0,2.707,1.2,3.73,3.1,3.73s3.083-1.023,3.083-3.73V168.225c0-2.707-1.2-3.73-3.083-3.73s-3.1,1.023-3.1,3.73Z" transform="translate(167.98 80.188)" fill="#fff"/>
      <path id="Path_36858" data-name="Path 36858" d="M352.185,169.823v27.45H346.83v-37.9h7.52l6.122,22.682V159.37h5.309v37.9H359.66Z" transform="translate(174.916 80.334)" fill="#fff"/>
      <path id="Path_36859" data-name="Path 36859" d="M361.44,159.37h9.416c6.016,0,8.889,3.294,8.889,9.371V187.9c0,6.016-2.933,9.371-8.889,9.371H361.44Zm6.016,5.415v27.074h3.354c1.9,0,3.008-.978,3.008-3.685v-19.7c0-2.707-1.143-3.685-3.008-3.685Z" transform="translate(182.281 80.334)" fill="#fff"/>
      <path id="Path_36860" data-name="Path 36860" d="M392.773,183.281v5.039c0,6.016-3.008,9.521-8.874,9.521s-8.889-3.459-8.889-9.521v-19.7c0-6.016,3.008-9.536,8.889-9.536s8.874,3.459,8.874,9.536v3.67h-5.625v-4.061c0-2.707-1.2-3.73-3.1-3.73s-3.008,1.023-3.008,3.73V188.7c0,2.707,1.188,3.685,3.008,3.685s3.1-.978,3.1-3.685v-5.415Z" transform="translate(189.121 80.188)" fill="#fff"/>
      <path id="Path_36861" data-name="Path 36861" d="M400.914,197.293a11.6,11.6,0,0,1-.542-4.663v-6.016c0-3.52-1.188-4.813-3.9-4.813h-2.061v15.432H388.4v-37.9h9.025c6.167,0,8.814,2.873,8.814,8.709v3.008c0,3.911-1.248,6.453-3.9,7.686,3.008,1.248,3.956,4.121,3.956,8.077v5.851a11.341,11.341,0,0,0,.647,4.6Zm-6.5-32.443v11.642h2.407c2.211,0,3.565-.978,3.565-4.016v-3.73c0-2.707-.917-3.9-3.008-3.9Z" transform="translate(195.871 80.314)" fill="#fff"/>
      <path id="Path_36862" data-name="Path 36862" d="M408.076,175.343h8.182v5.415h-8.182v11.13h10.288V197.3H402.12V159.4h16.244v5.415H408.076Z" transform="translate(202.787 80.349)" fill="#fff"/>
      <path id="Path_36863" data-name="Path 36863" d="M434.382,197.273h-6.016l-1.038-6.889h-7.31l-1.023,6.889H413.52l6.016-37.9h8.724ZM420.845,185.24h5.731L423.7,166.078Z" transform="translate(208.534 80.334)" fill="#fff"/>
      <path id="Path_36864" data-name="Path 36864" d="M427.3,159.37h18.41v5.46h-6.227v32.488h-6.016V164.83H427.24Z" transform="translate(215.45 80.334)" fill="#fff"/>
      <path id="Path_36865" data-name="Path 36865" d="M440.46,159.37h6.016v37.9H440.46Z" transform="translate(222.114 80.334)" fill="#fff"/>
      <path id="Path_36866" data-name="Path 36866" d="M456.034,190.279l4.512-30.909h5.46l-5.851,37.9h-8.874l-5.851-37.9h6.016Z" transform="translate(224.62 80.334)" fill="#fff"/>
      <path id="Path_36867" data-name="Path 36867" d="M460.19,159.37h6.016v37.9H460.19Z" transform="translate(232.06 80.334)" fill="#fff"/>
      <path id="Path_36868" data-name="Path 36868" d="M465.1,159.37h18.41v5.46h-6.227v32.488h-6.016V164.83H465.04Z" transform="translate(234.505 80.334)" fill="#fff"/>
      <path id="Path_36869" data-name="Path 36869" d="M484.52,184.7,477,159.37h6.227l4.512,17.267,4.512-17.267h5.685L490.417,184.7v12.574H484.4Z" transform="translate(240.534 80.334)" fill="#fff"/>
    </g>
  </g>
</svg>
